<?xml version="1.0" standalone="no"?>
<!DOCTYPE svg PUBLIC "-//W3C//DTD SVG 20010904//EN"
 "http://www.w3.org/TR/2001/REC-SVG-20010904/DTD/svg10.dtd">
<svg version="1.0" xmlns="http://www.w3.org/2000/svg"
 width="1080.000000pt" height="1080.000000pt" viewBox="0 0 1080.000000 1080.000000"
 preserveAspectRatio="xMidYMid meet">

<g transform="translate(0.000000,1080.000000) scale(0.100000,-0.100000)"
fill="#000000" stroke="none">
<path d="M5460 9543 c-1404 -100 -2630 -864 -3328 -2073 -294 -510 -466 -1044
-534 -1665 -20 -180 -17 -653 6 -840 83 -713 323 -1360 705 -1903 36 -52 73
-104 81 -115 69 -103 237 -294 395 -453 104 -104 206 -203 225 -220 254 -210
422 -329 665 -469 328 -190 758 -357 1125 -438 652 -145 1307 -137 1940 23
1071 270 1997 966 2559 1923 198 339 353 718 450 1102 32 127 79 399 97 566
24 212 24 649 0 849 -115 986 -510 1815 -1191 2505 -629 635 -1482 1058 -2385
1179 -234 32 -595 45 -810 29z m-592 -238 c3 -2 -5 -29 -18 -60 -20 -49 -26
-56 -62 -66 -22 -5 -42 -9 -44 -6 -4 4 13 110 22 136 3 10 16 12 51 7 25 -3
48 -8 51 -11z m1809 -2 c7 -3 11 -13 9 -22 -5 -15 -106 -567 -106 -578 0 -3
-17 -2 -37 1 -92 16 -95 17 -90 37 6 22 0 23 -33 4 -33 -19 -102 -19 -148 1
-117 49 -163 193 -104 327 59 134 224 177 318 83 l31 -31 18 98 17 99 56 -7
c30 -4 61 -9 69 -12z m-893 -66 c55 -39 80 -141 87 -352 l3 -70 -64 -7 c-35
-4 -65 -6 -67 -4 -2 2 -6 54 -9 117 -3 63 -10 131 -15 152 -19 72 -92 85 -130
23 -18 -28 -19 -43 -13 -168 l7 -136 -64 -4 c-35 -2 -65 -3 -67 -2 -1 1 -7 64
-12 140 -8 108 -14 145 -29 164 -27 38 -65 38 -103 0 l-31 -31 7 -145 7 -145
-68 3 -68 3 -12 190 c-6 105 -12 205 -12 223 l-1 32 65 0 c58 0 65 -2 65 -20
0 -20 0 -20 21 1 65 65 183 63 235 -4 l20 -25 32 38 c51 61 150 74 216 27z
m-1317 -172 c55 -150 153 -434 153 -445 0 -11 -113 -51 -122 -42 -9 10 -198
540 -198 557 0 13 96 56 114 52 5 -2 29 -57 53 -122z m488 63 c17 -9 42 -29
57 -45 28 -29 67 -107 68 -133 0 -12 -39 -25 -155 -54 -96 -24 -155 -43 -155
-51 0 -17 30 -42 61 -50 34 -8 95 17 104 44 6 20 33 31 113 47 30 6 32 5 32
-23 0 -16 -13 -50 -30 -76 -89 -141 -293 -149 -390 -15 -55 76 -62 183 -17
262 60 105 207 149 312 94z m2049 -78 c94 -36 156 -122 156 -221 0 -90 -65
-190 -146 -224 -112 -47 -254 7 -310 118 -23 44 -26 60 -22 118 8 110 64 184
161 215 60 18 99 17 161 -6z m-2754 -280 c52 -47 121 -107 153 -135 31 -27 57
-53 57 -57 0 -4 -27 -22 -61 -39 -67 -33 -60 -34 -117 19 -19 17 -22 17 -132
-35 l-100 -48 0 -55 0 -55 -62 -28 c-34 -15 -64 -24 -67 -22 -6 7 -39 478 -40
571 l-1 61 57 26 57 26 81 -72 c44 -40 123 -111 175 -157z m3563 62 c86 -38
152 -114 177 -205 13 -49 9 -122 -10 -157 -10 -18 -13 -17 -69 16 -58 34 -59
36 -54 72 7 54 -18 106 -66 138 -88 58 -189 33 -246 -60 -58 -95 -31 -197 65
-246 51 -26 93 -25 142 2 l39 22 52 -28 c71 -39 71 -38 37 -73 -51 -52 -95
-68 -190 -68 -100 0 -153 21 -219 87 -67 68 -86 118 -86 223 0 99 10 126 71
202 33 40 96 78 158 94 47 12 151 2 199 -19z m-1653 -136 c562 -83 1057 -278
1493 -590 502 -359 923 -894 1148 -1459 461 -1156 246 -2460 -563 -3403 -83
-97 -288 -301 -383 -380 -103 -87 -392 -294 -409 -294 -2 0 -33 -18 -68 -39
-205 -125 -562 -271 -818 -336 -117 -29 -340 -70 -480 -87 -158 -20 -604 -16
-760 5 -399 56 -718 151 -1055 317 -267 132 -484 273 -693 453 -559 480 -945
1127 -1091 1829 -58 280 -65 357 -66 688 0 199 5 338 13 400 57 407 156 737
323 1075 486 983 1420 1660 2504 1815 197 28 199 28 515 25 190 -2 320 -9 390
-19z m-2640 -225 c19 -10 36 -25 37 -32 4 -21 -85 -82 -109 -75 -30 7 -78 -20
-78 -45 0 -34 29 -33 111 6 63 30 88 36 116 32 60 -10 113 -74 113 -137 0 -98
-125 -210 -234 -210 -32 0 -107 37 -112 55 -2 6 19 27 46 48 43 33 51 36 73
26 43 -20 114 35 92 71 -10 17 -43 11 -95 -15 -98 -50 -169 -38 -218 35 -51
76 -9 177 98 233 61 32 111 34 160 8z m4903 -52 c37 -30 37 -31 37 -105 0 -41
-3 -74 -7 -74 -5 0 -25 16 -46 36 -29 27 -37 43 -35 63 3 24 0 26 -29 23 -24
-3 -42 4 -68 25 -19 15 -35 31 -35 34 0 8 81 26 120 28 15 1 41 -12 63 -30z
m-191 -48 c55 -35 77 -64 85 -114 5 -36 7 -37 24 -21 17 15 21 14 63 -21 26
-21 46 -41 46 -46 0 -7 -50 -71 -70 -89 -3 -3 -52 -60 -108 -127 -57 -68 -106
-123 -110 -123 -4 0 -27 18 -52 40 -36 31 -43 41 -32 51 19 20 15 24 -29 26
-53 2 -116 44 -146 98 -49 87 -18 213 70 291 81 71 180 85 259 35z m-5038
-215 c89 -37 150 -129 149 -227 -1 -66 -25 -120 -79 -172 -133 -129 -353 -58
-395 128 -11 49 -10 63 5 111 21 65 70 124 129 153 50 25 141 28 191 7z m5387
-113 c47 -53 52 -62 40 -76 -9 -11 -2 -16 32 -27 52 -15 113 -76 126 -128 13
-48 1 -101 -35 -150 -32 -42 -216 -212 -231 -212 -5 0 -29 21 -53 46 l-45 46
65 56 c135 119 160 147 160 180 0 36 -48 82 -86 82 -36 0 -57 -13 -158 -101
-50 -44 -93 -79 -96 -79 -11 0 -81 91 -78 101 5 15 311 288 324 288 5 1 21
-11 35 -26z m-5824 -197 c10 -8 29 -24 42 -34 l25 -19 -32 -41 c-18 -22 -32
-46 -32 -53 1 -15 122 -109 150 -116 10 -3 31 10 52 33 l36 37 41 -29 c22 -16
41 -34 41 -40 0 -6 -25 -38 -56 -72 -88 -98 -143 -95 -284 18 l-75 60 -25 -30
c-14 -17 -29 -30 -35 -30 -5 1 -27 16 -48 34 l-39 32 28 33 28 33 -26 19 c-81
59 -82 65 -25 131 l32 38 44 -35 c24 -19 49 -35 55 -35 6 1 25 19 41 40 34 44
38 46 62 26z m6191 -292 c123 -51 179 -209 115 -325 -14 -27 -31 -49 -37 -49
-6 0 -24 21 -41 47 -25 40 -29 56 -27 100 3 48 0 56 -28 84 -28 29 -35 31 -78
26 -39 -4 -53 -12 -79 -43 -18 -20 -33 -48 -33 -61 0 -54 46 -102 96 -103 27
0 37 -8 67 -55 35 -52 36 -55 18 -65 -34 -18 -127 -12 -176 11 -73 34 -135
129 -135 206 0 87 66 188 145 224 50 23 142 25 193 3z m-6371 -95 c50 -18 273
-153 273 -164 0 -6 -14 -33 -30 -59 -36 -56 -27 -58 -169 26 -119 71 -151 76
-189 33 -19 -23 -23 -36 -18 -63 7 -47 24 -63 143 -134 57 -35 103 -66 103
-70 0 -13 -61 -108 -69 -108 -6 0 -368 215 -380 226 -2 1 10 25 26 51 22 34
36 48 52 47 18 0 21 5 21 43 0 67 43 137 105 171 26 14 95 15 132 1z m6599
-344 c83 -24 149 -109 161 -204 9 -79 -29 -158 -99 -206 -70 -47 -66 -50 -142
110 -38 80 -72 145 -77 145 -15 0 -39 -45 -39 -73 0 -41 30 -87 61 -94 20 -4
31 -18 52 -66 15 -34 27 -66 27 -71 0 -5 -23 -6 -51 -3 -187 22 -276 250 -152
388 73 80 157 105 259 74z m-6858 -138 c141 -61 183 -90 213 -149 27 -53 20
-130 -18 -200 -33 -61 -71 -94 -124 -108 -55 -15 -95 -6 -246 57 l-132 55 25
55 c13 31 24 58 24 60 0 10 45 -5 155 -51 61 -25 115 -46 122 -46 55 -1 96 67
70 117 -15 27 -44 43 -230 122 l-47 20 21 52 c24 62 28 69 37 69 4 0 63 -24
130 -53z m7136 -344 c21 -61 20 -70 -5 -78 -20 -7 -19 -8 11 -26 29 -18 60
-70 60 -103 0 -11 -75 -46 -100 -46 -3 0 -12 16 -19 35 -15 43 -55 75 -93 75
-16 0 -77 -16 -134 -36 -57 -20 -110 -34 -117 -31 -12 4 -54 114 -46 120 11
10 387 135 406 136 17 1 24 -9 37 -46z m-7405 -133 c97 -28 188 -55 202 -61
34 -13 85 -66 98 -102 16 -41 12 -124 -8 -187 -17 -53 -18 -55 -52 -54 -19 1
-46 7 -61 12 l-27 11 14 48 c20 66 19 106 -4 127 -10 10 -103 41 -206 71 -103
29 -189 56 -193 59 -5 6 15 101 25 119 8 13 34 8 212 -43z"/>
<path d="M6352 9069 c-96 -28 -94 -196 3 -215 42 -8 66 0 98 32 81 81 8 214
-101 183z"/>
<path d="M4779 9011 c-33 -33 -39 -65 -11 -57 9 3 47 13 85 22 37 9 67 20 67
25 0 16 -45 39 -78 39 -24 0 -42 -9 -63 -29z"/>
<path d="M6853 8908 c-75 -79 -35 -188 68 -188 41 0 66 15 84 50 41 80 -2 170
-82 170 -31 0 -45 -7 -70 -32z"/>
<path d="M4026 8700 c4 -52 8 -96 9 -98 2 -2 31 11 66 28 l63 32 -45 42 c-25
22 -57 52 -72 66 l-28 24 7 -94z"/>
<path d="M5355 8102 c-33 -16 -73 -43 -89 -60 -25 -27 -28 -36 -24 -77 3 -25
8 -48 11 -51 3 -3 36 9 73 27 56 28 80 34 154 37 89 4 165 -11 216 -45 20 -12
22 -12 28 9 14 55 7 85 -29 117 -60 53 -93 64 -190 68 -83 4 -95 2 -150 -25z"/>
<path d="M5182 7953 c-51 -98 -64 -217 -36 -314 24 -79 52 -129 148 -266 47
-68 86 -127 86 -132 0 -5 -16 -37 -35 -71 -58 -103 -155 -314 -155 -338 0 -10
119 -166 129 -170 5 -1 44 70 87 159 102 210 108 221 119 222 6 0 43 -56 82
-124 40 -68 92 -156 115 -196 23 -39 45 -70 49 -67 11 7 119 183 119 195 0 24
-186 343 -227 391 -13 15 -8 29 55 135 87 148 86 145 111 222 27 81 27 170 1
252 -19 61 -57 135 -65 127 -2 -2 -11 -36 -19 -76 -8 -39 -33 -111 -55 -158
-43 -91 -169 -287 -182 -282 -12 5 -148 178 -187 238 -46 73 -81 150 -102 230
l-17 65 -21 -42z"/>
<path d="M3863 7549 l-33 -9 31 -50 c17 -27 34 -52 39 -55 12 -7 170 18 170
27 0 25 -42 86 -62 92 -33 8 -107 6 -145 -5z"/>
<path d="M4106 7461 c47 -135 54 -321 22 -573 -10 -84 -11 -87 -37 -86 -30 0
-87 -20 -58 -21 19 -1 23 -17 5 -23 -11 -4 29 -28 79 -48 19 -8 21 -6 18 20
-3 19 3 37 16 52 11 13 17 16 13 8 -6 -12 -4 -13 7 -2 7 6 26 12 41 12 18 0
28 5 28 15 0 20 56 48 80 40 14 -5 20 -2 20 10 0 9 -4 13 -10 10 -14 -8 -13
18 1 32 7 7 10 63 7 169 -4 147 -6 164 -32 226 -31 74 -113 165 -184 205 l-40
22 24 -68z m-29 -677 c-3 -3 -12 -4 -19 -1 -8 3 -5 6 6 6 11 1 17 -2 13 -5z"/>
<path d="M4336 6829 c3 -6 6 -57 5 -113 l-2 -102 51 -32 c28 -18 53 -32 56
-32 3 0 30 -16 60 -35 30 -19 56 -35 59 -35 3 0 33 -18 68 -39 35 -21 78 -46
95 -55 l32 -17 0 120 0 120 -89 55 c-132 82 -350 189 -335 165z"/>
<path d="M5457 6286 c-159 -57 -259 -225 -228 -380 18 -84 52 -147 109 -197
l50 -43 -49 -22 c-68 -32 -116 -66 -180 -129 l-56 -56 -39 22 c-22 13 -40 24
-42 25 -2 1 12 23 31 48 87 113 58 272 -66 354 -56 37 -174 44 -233 14 -88
-45 -134 -122 -134 -222 0 -69 14 -110 55 -158 15 -18 26 -34 24 -36 -2 -2
-23 -13 -47 -25 -118 -60 -222 -215 -222 -331 0 -76 -96 -70 1135 -70 1212 0
1135 -4 1135 59 0 37 -27 126 -55 182 -28 54 -119 140 -175 165 -22 10 -40 21
-40 24 0 4 10 15 21 26 59 52 78 177 41 265 -21 49 -77 104 -128 125 -43 18
-145 18 -188 0 -48 -20 -107 -75 -127 -121 -22 -48 -25 -151 -6 -198 8 -18 26
-47 42 -65 15 -18 26 -34 24 -36 -2 -2 -23 -13 -46 -25 l-42 -21 -17 26 c-26
39 -147 129 -208 154 l-55 23 50 45 c95 85 134 197 110 315 -24 119 -88 199
-202 252 -43 20 -70 25 -129 24 -41 0 -92 -6 -113 -13z m228 -82 c164 -77 203
-285 80 -422 -168 -186 -465 -70 -465 182 0 84 23 139 83 197 76 73 202 91
302 43z m-734 -357 c18 -12 44 -38 57 -57 20 -30 23 -44 20 -97 -6 -104 -68
-163 -168 -163 -101 0 -170 68 -170 168 0 65 24 111 78 147 50 34 134 35 183
2z m1417 -7 c53 -38 72 -76 72 -143 0 -99 -70 -167 -170 -167 -101 0 -170 71
-170 175 0 59 21 98 72 135 34 25 51 30 98 30 47 0 64 -5 98 -30z m-639 -251
c170 -58 305 -216 328 -385 l6 -44 -493 -2 c-404 -3 -493 -1 -498 10 -8 21 26
131 60 195 63 117 209 223 340 247 75 13 182 4 257 -21z m-707 -166 l47 -22
-24 -56 c-14 -30 -31 -85 -37 -120 l-13 -65 -244 0 -244 0 7 41 c14 90 102
190 200 229 71 28 239 24 308 -7z m1391 7 c96 -36 170 -119 203 -225 l13 -45
-248 0 -248 0 -6 52 c-4 28 -18 82 -33 120 -14 38 -24 72 -20 75 3 3 29 14 58
24 75 26 210 25 281 -1z"/>
<path d="M7797 5935 c-79 -22 -174 -77 -331 -192 -32 -24 -61 -43 -65 -43 -4
0 -49 22 -99 49 -101 54 -292 141 -309 141 -5 0 -50 -30 -99 -67 l-88 -67 204
-98 c112 -54 199 -102 194 -107 -7 -6 -161 -97 -367 -216 l-37 -22 96 -61 c52
-34 101 -62 109 -62 22 0 183 88 302 166 l111 72 119 -70 c155 -94 219 -118
319 -125 90 -6 169 11 242 53 48 28 47 44 -2 44 -41 0 -142 33 -221 72 -76 38
-257 158 -253 168 5 13 178 150 237 188 73 47 153 82 231 102 l64 17 -41 22
c-96 48 -219 63 -316 36z"/>
<path d="M4075 5864 c-75 -40 -197 -113 -278 -166 l-87 -59 -100 61 c-56 33
-122 71 -148 84 -151 76 -298 76 -432 -2 l-45 -26 45 -8 c101 -19 258 -84 350
-147 25 -17 67 -45 94 -63 l49 -32 -25 -20 c-14 -12 -46 -39 -73 -61 -44 -37
-105 -84 -165 -128 -21 -14 -21 -16 -3 -7 12 5 28 10 35 9 7 0 3 -4 -9 -9 -31
-13 -42 -59 -18 -77 18 -12 17 -13 -6 -14 -13 0 -18 -3 -11 -6 18 -7 15 -23
-5 -24 -10 -1 -2 -5 17 -9 22 -5 27 -8 13 -9 -12 0 -25 -6 -28 -12 -10 -15 66
-2 134 23 59 22 170 89 283 171 l67 49 84 -46 c90 -49 227 -109 234 -102 6 6
-40 31 -50 28 -5 -1 -6 2 -2 8 4 7 12 7 25 0 25 -13 51 -13 28 1 -15 8 -18 22
-16 74 1 47 5 65 15 65 29 0 -12 38 -69 66 -32 15 -58 32 -58 38 0 6 31 29 68
50 190 110 308 180 319 190 9 8 -11 25 -81 69 -51 31 -100 57 -107 57 -8 -1
-27 -8 -44 -16z"/>
<path d="M8110 5837 c-25 -5 -46 -10 -47 -11 -2 -2 10 -27 27 -57 59 -109 63
-260 10 -362 -25 -47 -18 -57 46 -57 49 0 81 29 118 110 21 44 26 70 26 130 0
81 -17 132 -65 194 -41 54 -63 64 -115 53z"/>
<path d="M2910 5683 c-18 -20 -38 -50 -45 -67 -20 -47 -29 -122 -16 -130 6 -4
11 -1 11 6 0 9 2 10 8 2 4 -7 26 -10 58 -7 l51 5 13 65 c7 36 23 84 35 108 13
24 21 46 18 49 -4 3 -28 6 -54 6 -42 0 -51 -4 -79 -37z"/>
<path d="M6510 5010 c0 -5 5 -10 11 -10 5 0 7 5 4 10 -3 6 -8 10 -11 10 -2 0
-4 -4 -4 -10z"/>
<path d="M6510 4980 c0 -5 5 -10 11 -10 5 0 7 5 4 10 -3 6 -8 10 -11 10 -2 0
-4 -4 -4 -10z"/>
<path d="M6580 4976 c0 -2 7 -7 16 -10 8 -3 12 -2 9 4 -6 10 -25 14 -25 6z"/>
<path d="M4511 4954 c0 -11 3 -14 6 -6 3 7 2 16 -1 19 -3 4 -6 -2 -5 -13z"/>
<path d="M4450 4934 l-25 -15 25 7 c28 7 35 12 29 18 -2 2 -15 -2 -29 -10z"/>
<path d="M4370 4900 c-8 -5 -10 -10 -5 -10 6 0 17 5 25 10 8 5 11 10 5 10 -5
0 -17 -5 -25 -10z"/>
<path d="M4321 4875 c-16 -103 -31 -271 -31 -348 l0 -98 -37 -15 c-82 -34
-250 -118 -293 -147 -62 -42 -113 -95 -139 -142 -24 -45 -26 -55 -10 -55 5 0
8 3 5 8 -2 4 3 16 11 27 15 20 15 20 10 0 -12 -41 -17 -80 -9 -62 4 10 12 19
17 20 6 1 9 5 8 10 -2 4 2 7 7 7 6 0 10 -6 10 -14 0 -8 7 -17 16 -20 13 -5 14
-9 4 -21 -11 -13 -10 -14 4 -9 9 3 16 10 16 15 0 5 3 8 8 7 4 -1 35 13 70 31
35 17 100 46 145 62 45 17 86 34 92 38 5 5 22 11 37 15 29 7 27 16 44 -180 10
-116 -15 -273 -62 -388 -7 -17 -3 -17 36 5 62 35 144 118 172 175 42 83 52
145 50 324 l-2 166 108 53 c102 51 225 121 285 163 27 19 27 20 27 134 0 66
-4 114 -10 114 -5 0 -51 -24 -102 -53 -51 -30 -113 -65 -138 -79 -25 -14 -73
-41 -107 -61 -34 -19 -64 -33 -67 -30 -3 3 -3 53 0 112 3 61 1 119 -5 136 -9
27 -10 24 -6 -20 2 -29 1 -40 -3 -25 -12 42 -36 70 -59 70 -13 0 -23 4 -23 9
0 5 -15 12 -34 15 -28 5 -36 12 -39 34 -2 15 -5 23 -6 17z"/>
<path d="M4501 4784 c0 -11 3 -14 6 -6 3 7 2 16 -1 19 -3 4 -6 -2 -5 -13z"/>
<path d="M5733 4423 c-68 -123 -200 -337 -211 -341 -6 -2 -18 13 -27 32 -17
36 -44 40 -46 7 0 -10 -2 -11 -6 -3 -2 6 -22 12 -43 12 -21 0 -41 -6 -43 -12
-3 -8 -6 -6 -6 4 -1 22 -41 46 -41 24 0 -8 5 -18 10 -21 6 -3 10 -10 10 -16 0
-10 -39 9 -53 26 -15 18 -4 -8 56 -127 l58 -116 -77 -108 c-88 -124 -150 -240
-158 -299 -6 -39 -6 -39 10 9 19 59 25 57 14 -4 -9 -49 -5 -68 6 -26 5 23 11
26 49 26 25 0 46 -5 49 -12 3 -7 5 -1 3 13 -3 23 0 27 20 24 32 -3 38 -12 23
-30 -7 -8 -9 -15 -4 -15 5 1 20 16 34 34 23 30 71 89 126 154 13 16 25 22 33
18 17 -11 131 -187 166 -255 37 -74 54 -124 69 -201 l12 -65 26 45 c36 61 58
142 58 210 0 99 -37 194 -146 373 -30 49 -54 90 -54 92 0 3 25 42 56 87 31 46
67 103 81 128 78 137 104 193 98 207 -9 24 -109 183 -115 183 -3 0 -20 -26
-37 -57z m-253 -303 c0 -5 -4 -10 -10 -10 -5 0 -10 5 -10 10 0 6 5 10 10 10 6
0 10 -4 10 -10z"/>
<path d="M6985 4060 c3 -5 8 -10 11 -10 2 0 4 5 4 10 0 6 -5 10 -11 10 -5 0
-7 -4 -4 -10z"/>
<path d="M3777 4021 c-4 -17 -3 -21 5 -13 5 5 8 16 6 23 -3 8 -7 3 -11 -10z"/>
<path d="M3850 3995 c-11 -13 -10 -14 4 -9 9 3 16 10 16 15 0 13 -6 11 -20 -6z"/>
<path d="M7090 3975 c13 -14 26 -25 28 -25 3 0 -5 11 -18 25 -13 14 -26 25
-28 25 -3 0 5 -11 18 -25z"/>
<path d="M3763 3923 c4 -3 1 -13 -6 -22 -11 -14 -10 -14 5 -2 16 12 16 31 1
31 -4 0 -3 -3 0 -7z"/>
<path d="M7152 3906 c7 -8 15 -12 17 -11 5 6 -10 25 -20 25 -5 0 -4 -6 3 -14z"/>
<path d="M3840 3895 c0 -5 5 -17 10 -25 5 -8 10 -10 10 -5 0 6 -5 17 -10 25
-5 8 -10 11 -10 5z"/>
<path d="M3790 3855 c-7 -9 -11 -17 -9 -20 3 -2 10 5 17 15 14 24 10 26 -8 5z"/>
<path d="M7120 3861 c0 -6 4 -13 10 -16 6 -3 7 1 4 9 -7 18 -14 21 -14 7z"/>
<path d="M7141 3814 c0 -11 3 -14 6 -6 3 7 2 16 -1 19 -3 4 -6 -2 -5 -13z"/>
<path d="M3791 3812 c-1 -15 26 -82 33 -82 3 0 -1 15 -8 33 -7 17 -16 39 -19
47 -3 10 -6 10 -6 2z"/>
<path d="M3920 3792 c0 -4 4 -12 10 -18 6 -6 4 -18 -5 -34 -27 -47 -28 -53
-16 -71 14 -23 4 -25 -21 -2 -10 9 -20 14 -23 11 -10 -9 83 -78 126 -93 48
-17 161 -20 190 -5 16 9 49 68 49 90 0 4 -30 10 -67 13 -74 7 -171 48 -215 91
-16 15 -28 23 -28 18z m32 -60 c-7 -2 -12 -11 -13 -20 0 -10 -3 -12 -5 -5 -3
7 0 22 7 35 9 17 14 19 17 8 3 -7 0 -16 -6 -18z"/>
<path d="M5300 3500 c0 -5 5 -10 10 -10 6 0 10 5 10 10 0 6 -4 10 -10 10 -5 0
-10 -4 -10 -10z"/>
<path d="M5685 3196 c-33 -22 -124 -46 -184 -47 -43 -1 -50 -3 -31 -9 14 -4
19 -8 12 -9 -9 -1 -12 -18 -11 -62 l2 -61 62 4 c67 6 107 23 160 69 35 31 42
56 29 107 -7 26 -13 27 -39 8z"/>
<path d="M8054 8224 c-59 -62 -43 -145 33 -175 29 -11 72 -2 99 20 82 66 45
191 -57 191 -35 0 -47 -6 -75 -36z"/>
<path d="M3041 8024 c-30 -21 -51 -71 -44 -106 3 -15 18 -41 34 -57 71 -74
178 -34 179 68 0 37 -5 48 -36 77 -40 39 -93 46 -133 18z"/>
<path d="M9120 6991 c0 -9 36 -88 59 -129 18 -33 41 -11 41 40 0 30 -7 46 -29
69 -28 27 -71 40 -71 20z"/>
</g>
</svg>
